<svg width="216" height="65" viewBox="0 0 216 65" fill="none" xmlns="http://www.w3.org/2000/svg">
<g style="mix-blend-mode:overlay" opacity="0.1">
<g style="mix-blend-mode:overlay" opacity="0.1">
<path d="M34.5305 34.7939C37.0837 38.028 38.3098 42.1128 37.9598 46.2183C42.6226 46.3649 48.1877 45.1716 51.9401 44.4634C51.9739 41.1244 50.9712 37.8571 49.0703 35.1118C48.0484 33.7761 47.1843 32.3618 46.1624 31.025C43.4123 27.7217 42.2056 27.8249 39.4525 24.5278C36.8021 21.5849 35.4183 17.7161 35.601 13.7599C35.5773 13.013 35.7123 12.2695 35.997 11.5786C36.2817 10.8877 36.7097 10.2649 37.2527 9.75149C37.5142 9.48895 37.8336 9.2913 38.1853 9.17434C38.537 9.05738 38.9111 9.02436 39.2778 9.07794C39.6446 9.13152 39.9936 9.2702 40.2971 9.48288C40.6006 9.69557 40.8502 9.97635 41.0257 10.3028C41.3951 11.1581 41.6589 12.0552 41.8113 12.9743C41.9682 14.3111 41.9682 15.5685 42.2046 16.9043C42.2735 17.2243 42.4159 17.524 42.6206 17.7796C42.8252 18.0351 43.0865 18.2396 43.3838 18.3768C43.6811 18.5139 44.0063 18.5801 44.3335 18.57C44.6608 18.5599 44.9812 18.4738 45.2694 18.3185C46.7794 17.5419 47.9641 16.2538 48.6119 14.6843C49.2598 13.1147 49.3286 11.366 48.8061 9.75047C47.4703 6.29332 45.1125 3.69916 41.261 2.91359C39.4466 2.58721 37.6024 2.45536 35.76 2.52029C33.9739 2.52654 32.2207 3.00171 30.676 3.89828C29.1312 4.79485 27.849 6.08135 26.9576 7.6291C22.2421 15.0172 22.7912 22.6407 28.4503 29.3207C31.0444 32.305 32.1727 31.728 34.5305 34.7939Z" fill="white"/>
</g>
<g style="mix-blend-mode:overlay" opacity="0.1">
<path d="M63.4959 42.6115C63.9604 41.6611 64.4638 40.732 65.0061 39.8243C65.8412 40.0989 65.899 40.487 65.8784 40.8876C65.8898 41.3624 65.897 41.8383 65.9073 42.3142C68.1784 42.0451 70.4515 41.8063 72.7266 41.5978C72.7153 41.4997 72.705 41.4089 72.6946 41.3087C72.2108 39.4841 71.6267 37.6876 70.9449 35.9274C70.6594 35.1597 70.2136 34.4616 69.6372 33.8796C69.0609 33.2976 68.3671 32.845 67.6022 32.552C66.8373 32.259 66.0188 32.1323 65.2011 32.1803C64.3834 32.2284 63.5853 32.45 62.86 32.8305C61.4209 33.4425 60.1684 34.4227 59.2284 35.6724C57.4354 38.1801 55.9656 40.9038 54.8535 43.779C57.7336 43.3661 60.6144 42.9769 63.4959 42.6115Z" fill="white"/>
</g>
<g style="mix-blend-mode:overlay" opacity="0.1">
<path d="M68.719 24.5308C70.4127 25.3013 72.2154 25.8051 74.0631 26.0246C75.7148 26.3343 77.7567 25.6313 78.9356 26.9681C80.3508 28.6198 78.9356 30.5811 78.7002 32.3123L77.223 41.223C80.7679 40.966 84.3221 40.7926 87.8897 40.7575C88.3826 40.7545 88.8748 40.7945 89.3607 40.8772C89.9285 38.2841 90.5045 35.691 91.1156 33.0978C92.2945 28.4608 91.4366 26.9763 95.7547 27.2778C96.4127 27.3249 97.0741 27.2717 97.7161 27.1198C98.5552 26.9146 99.3714 26.6251 100.152 26.2558C100.724 26.0706 101.226 25.7156 101.591 25.2382C101.956 24.7608 102.167 24.1835 102.196 23.5832C102.155 22.978 101.96 22.3932 101.63 21.8844C101.3 21.3755 100.845 20.9593 100.309 20.6752C99.3071 20.0201 98.127 19.6909 96.9305 19.7327C91.9755 19.8896 93.7046 18.7149 93.783 14.5496C93.7754 14.2039 93.7226 13.8607 93.6261 13.5287C93.4485 12.507 92.8835 11.5934 92.0489 10.978C91.2143 10.3626 90.1744 10.093 89.146 10.2253C88.386 10.2674 87.6452 10.4799 86.9785 10.8471C86.3118 11.2143 85.7362 11.7268 85.2945 12.3467C84.3302 13.7521 83.5138 15.2535 82.8583 16.8268C82.5397 17.7181 81.9352 18.479 81.139 18.9908C80.3429 19.5026 79.3997 19.7366 78.4566 19.6563C76.936 19.5518 75.4088 19.6044 73.899 19.8133C72.2017 20.0061 70.5205 20.3214 68.8686 20.7568C68.4537 20.8621 68.0808 21.0916 67.7998 21.4146C67.5188 21.7376 67.3432 22.1388 67.2964 22.5643C67.3164 22.995 67.4616 23.4105 67.7143 23.7598C67.967 24.1092 68.3161 24.3771 68.719 24.5308Z" fill="white"/>
</g>
<g style="mix-blend-mode:overlay" opacity="0.1">
<path d="M120.632 40.4819C120.602 40.423 120.564 40.3673 120.535 40.3084C117.862 35.5145 116.37 35.8293 122.107 31.0343C123.609 29.9077 125.028 28.6732 126.351 27.3408C127.845 25.847 127.136 23.8815 125.172 23.1744C124.551 22.9545 123.879 22.9191 123.238 23.0726C122.596 23.2261 122.013 23.5619 121.559 24.0395C120.065 25.2184 118.808 26.6336 117.394 27.8899C117.238 28.0494 117.044 28.1649 116.829 28.2248C116.615 28.2847 116.389 28.2869 116.173 28.2312C115.958 28.1754 115.761 28.0637 115.602 27.9073C115.444 27.751 115.33 27.5555 115.271 27.3408C114.721 25.5322 114.452 17.5629 114.609 15.5974C114.7 13.2486 114.354 10.9032 113.588 8.68104C113.236 7.55785 112.584 6.55225 111.702 5.77306C111.437 5.52327 111.122 5.33184 110.779 5.21114C110.435 5.09044 110.07 5.04315 109.707 5.07234C109.344 5.10153 108.991 5.20654 108.671 5.38058C108.352 5.55462 108.072 5.79382 107.85 6.08274C107.24 6.92148 106.763 7.84944 106.436 8.83381C105.911 10.6572 105.543 12.5221 105.335 14.4082C104.674 21.7437 104.097 33.3694 103.597 42.0737C109.223 41.0855 114.92 40.5532 120.632 40.4819Z" fill="white"/>
</g>
<g style="mix-blend-mode:overlay" opacity="0.1">
<g style="mix-blend-mode:overlay" opacity="0.1">
<path d="M166.947 41.7732C167.233 41.3603 167.52 40.9247 167.804 40.4313C168.256 39.1839 169.113 38.1238 170.238 37.4201L168.598 33.4509C167.459 34.638 166.475 35.9648 165.67 37.3994C165.062 38.3764 164.375 39.3023 163.617 40.168C163.172 40.6542 162.788 41.1937 162.476 41.7743C163.966 41.786 165.456 41.7856 166.947 41.7732Z" fill="white"/>
</g>
<g style="mix-blend-mode:overlay" opacity="0.1">
<path d="M169.844 40.329C170.683 40.9484 171.014 41.2715 171.042 41.6979C174.139 41.6132 177.213 41.5141 180.278 41.4718C180.746 40.7627 181.147 40.0118 181.476 39.2286C181.763 38.7336 181.88 38.1582 181.809 37.5904C181.738 37.0225 181.483 36.4935 181.083 36.0843C180.689 35.6644 180.17 35.3838 179.603 35.2846C179.036 35.1854 178.452 35.2729 177.939 35.5341C176.95 36.0624 176.004 36.6671 175.109 37.3426C174.555 37.817 173.872 38.1175 173.148 38.2066C172.676 38.1282 172.283 37.9713 172.441 37.42C172.519 36.8709 172.913 36.4776 173.07 35.9274C173.698 34.0414 173.07 32.7045 171.418 32.1553C169.924 31.6836 168.51 32.5476 167.96 34.3552C167.251 36.7924 167.564 38.7569 169.844 40.329Z" fill="white"/>
</g>
</g>
<g style="mix-blend-mode:overlay" opacity="0.1">
<path d="M197.168 39.1811C197.954 39.5755 197.954 39.9677 197.875 40.36C197.791 41.0362 197.702 41.7123 197.615 42.3885C197.896 42.445 198.172 42.5233 198.441 42.6228H204.531C204.542 42.3431 204.552 42.0674 204.562 41.7753C204.352 39.9012 204.037 38.0402 203.62 36.2009C203.45 35.3998 203.111 34.6441 202.626 33.9842C202.14 33.3244 201.52 32.7753 200.807 32.3738C200.093 31.9722 199.302 31.7272 198.486 31.6552C197.67 31.5832 196.848 31.6858 196.075 31.9561C194.562 32.3511 193.18 33.1372 192.067 34.2354C189.957 36.4235 188.127 38.865 186.619 41.5038C189.431 41.5719 192.246 41.7443 195.073 42.0561C195.724 41.0692 196.418 40.1019 197.168 39.1811Z" fill="white"/>
</g>
<g style="mix-blend-mode:overlay" opacity="0.1">
<g style="mix-blend-mode:overlay" opacity="0.1">
<path d="M140.788 40.5902C141.922 40.5885 143.042 40.8436 144.063 41.3366C151.147 41.4687 158.234 41.7908 165.317 41.7815C165.425 40.6752 165.322 39.5586 165.014 38.4906C164.593 36.9038 164.566 35.2382 164.936 33.6388C165.349 31.8426 165.104 31.6341 163.896 29.7945C162.688 27.955 163.114 27.03 163.469 25.5848C163.825 24.1396 163.905 23.1238 162.695 22.4559C161.485 21.7881 161.525 21.2812 161.488 20.2262C161.452 19.1712 161.883 18.6633 160.321 17.8788C158.759 17.0942 157.43 17.5587 157.158 16.8155C156.776 15.7718 152.706 15.3207 151.021 17.2284C149.336 19.1361 148.981 20.5854 147.34 20.4285C145.698 20.2716 143.98 19.9516 142.414 21.5114C140.848 23.0712 139.915 24.3151 138.154 24.1004C135.619 23.7907 135.589 25.8604 134.541 26.7245C133.819 27.3232 132.064 27.5152 131.438 28.9955C130.813 30.4758 131.638 30.9569 130.54 32.2834C129.443 33.6099 128.9 33.7885 128.389 35.3121C128.026 36.3929 128.244 38.6475 128.125 40.4292C132.272 40.4664 136.48 40.5613 140.788 40.5902Z" fill="white"/>
</g>
<g style="mix-blend-mode:overlay" opacity="0.1">
<path d="M154.829 14.4835C154.669 14.498 153.99 14.5764 152.989 14.69C151.989 14.8036 150.884 15.0812 150.271 15.1194C150.008 15.1621 149.738 15.1411 149.485 15.0582C149.231 14.9752 149.001 14.8327 148.814 14.6425C148.223 14.1677 146.027 12.1134 144.336 11.9441C142.592 11.806 140.839 11.8167 139.097 11.9761C137.581 12.1041 133.15 12.2992 129.648 14.4288C127.415 15.919 125.737 18.1061 124.877 20.6494C124.837 20.7998 124.832 20.9576 124.865 21.1098C124.898 21.262 124.966 21.4043 125.065 21.5248C125.842 22.2812 126.737 22.9057 127.716 23.3736C129.595 24.2557 131.694 24.5586 133.745 24.2439C136.354 23.9276 138.893 23.1907 141.266 22.0616C141.831 21.6033 145.468 19.2218 146.888 18.3515C148.307 17.4813 150.28 15.6676 150.892 15.6314C151.504 15.5953 153.971 14.9935 154.58 15.0193C155.045 15.0008 155.508 14.9563 155.968 14.8861C156.311 14.8904 156.654 14.9267 156.991 14.9945C157.244 15.0699 157.447 15.5922 157.403 15.7512C157.36 15.9102 157.507 16.3706 157.375 16.4893C157.242 16.608 156.998 16.9549 157.053 17.182C157.107 17.4091 156.846 18.2545 157.492 18.2824C158.138 18.3102 159.375 19.005 159.454 18.8078C159.953 17.5195 158.908 16.6514 158.854 16.3923C158.816 16.0823 158.797 15.7703 158.798 15.458C158.798 15.458 159.643 15.7192 159.484 15.458C159.325 15.1968 158.647 15.2299 158.338 14.9594C158.028 14.689 157.793 14.1966 157.254 14.0128C156.976 13.9028 156.69 13.8154 156.398 13.7516C156.175 13.7103 156.287 14.1006 156.287 14.1006C156.287 14.1006 155.496 13.8095 154.99 13.6267C154.373 13.3855 153.783 13.0804 153.23 12.7163C152.981 12.5098 152.75 11.9245 152.018 11.7645C151.286 11.6045 150.206 11.301 149.825 11.1874C149.444 11.0739 148.908 10.8592 148.101 9.44284C147.295 8.02654 142.569 4.12962 141.521 3.60212C140.472 3.07462 137.185 0.331825 134.723 0.0324595C133.936 -0.0544086 133.139 0.0336035 132.389 0.290202C131.64 0.546801 130.956 0.965663 130.387 1.5169C130.081 2.19563 129.913 2.92831 129.892 3.67252C129.871 4.41673 129.998 5.15769 130.266 5.85253C131.006 8.06886 136.39 11.7366 136.75 11.9431C139.826 12.3118 142.926 12.4237 146.02 12.2775C146.959 11.8658 147.93 11.5312 148.923 11.2772C149.274 11.3247 151.967 12.2063 151.967 12.2063L151.891 12.4922C151.891 12.4922 150.072 12.1898 149.912 12.1826C149.752 12.1753 150.152 12.5779 150.441 12.5955C150.73 12.613 151.334 12.7627 151.876 12.8505C152.702 13.0562 153.507 13.3382 154.281 13.6928C154.595 13.8642 155.276 14.4443 154.829 14.4835Z" fill="white"/>
</g>
</g>
</g>
<path d="M20.2619 2.91057C24.1134 3.69614 26.4711 6.2903 27.8069 9.74745C28.3296 11.363 28.2609 13.1118 27.6131 14.6814C26.9652 16.2509 25.7804 17.539 24.2703 18.3155C23.982 18.4708 23.6616 18.5568 23.3343 18.567C23.0071 18.5771 22.6819 18.5109 22.3847 18.3738C22.0874 18.2366 21.8261 18.0321 21.6214 17.7765C21.4167 17.521 21.2743 17.2213 21.2054 16.9012C20.969 15.5655 20.969 14.3081 20.8121 12.9723C20.6598 12.0528 20.396 11.1554 20.0265 10.2997C19.851 9.97333 19.6015 9.69254 19.298 9.47986C18.9945 9.26718 18.6454 9.1285 18.2787 9.07492C17.912 9.02134 17.5378 9.05436 17.1861 9.17132C16.8345 9.28828 16.5151 9.48595 16.2535 9.74849C15.7105 10.2619 15.2825 10.8846 14.9978 11.5756C14.7131 12.2665 14.5782 13.01 14.6018 13.7569C14.4192 17.7131 15.8029 21.5819 18.4533 24.5247C21.2044 27.8281 22.4111 27.7248 25.1632 31.022C26.1852 32.3588 27.0492 33.7731 28.0712 35.1088C30.8222 39.0388 31.294 43.3672 30.7438 47.9206C30.6099 49.2366 30.214 50.5125 29.5795 51.6732C28.945 52.8339 28.0847 53.8559 27.0492 54.6791C22.9706 57.9687 18.0889 60.112 12.9068 60.8883C8.42664 61.7523 3.71112 58.7659 1.58872 54.2816C0.430376 51.6072 -0.106798 48.705 0.0175691 45.7931C0.0300453 45.3437 0.0825564 44.8963 0.174478 44.4563C0.192885 43.6184 0.513027 42.8154 1.07608 42.1947C1.63914 41.574 2.40728 41.1773 3.23936 41.0776C4.0794 41.017 4.91909 41.1998 5.65797 41.6041C6.39685 42.0083 7.00362 42.6168 7.40569 43.3569C8.00059 44.7465 8.29504 46.2461 8.26973 47.7575C8.37615 49.0512 8.55989 50.3373 8.81994 51.609C9.09198 52.8937 9.81756 54.0374 10.8639 54.8308C11.1933 55.1632 11.6376 55.3567 12.1054 55.3715C12.5731 55.3863 13.0288 55.2212 13.3786 54.9103C13.7861 54.5283 14.1547 54.1068 14.479 53.6519C16.2966 50.7981 17.1821 47.4498 17.0131 44.0705C16.844 40.6913 15.6288 37.4481 13.5355 34.7899C11.1777 31.7239 10.0494 32.301 7.45627 29.3187C1.79724 22.6387 1.24806 15.0152 5.96357 7.62712C6.85481 6.07945 8.13688 4.79298 9.68146 3.89641C11.226 2.99984 12.979 2.52463 14.7649 2.51831C16.606 2.45337 18.4487 2.58486 20.2619 2.91057Z" fill="#006100"/>
<path d="M70.944 35.9243C71.6258 37.6845 72.2099 39.481 72.6937 41.3056C73.1366 45.3718 73.4948 48.3376 73.7776 51.3189C73.9036 52.1736 74.0306 53.0284 74.2226 53.7964C74.4497 54.7956 74.7666 55.861 75.9124 56.0881C77.3029 56.3596 77.9316 55.2333 78.4261 54.2857C79.1686 52.9017 79.8334 51.4773 80.4174 50.0192L81.429 47.7244C81.5972 47.3285 81.8405 46.9688 82.1454 46.6653C82.3177 46.4388 82.552 46.2672 82.8198 46.1712C83.0877 46.0752 83.3777 46.0589 83.6546 46.1244C83.9393 46.1898 84.1897 46.3585 84.3572 46.5978C84.5248 46.8371 84.5978 47.13 84.562 47.4199C84.3244 51.1388 82.829 54.6663 80.3214 57.4228C77.2245 60.6611 73.0953 61.1938 69.601 58.5315C67.6396 57.0739 66.2574 56.8799 64.3084 58.2022C63.1762 58.8203 61.8787 59.0679 60.5983 58.9104C56.9193 58.739 54.8433 57.0605 54.0691 53.4392C53.5993 51.5003 53.5175 49.4876 53.8286 47.5169C54.6069 43.1111 56.7448 39.2988 59.2275 35.6745C60.1675 34.4247 61.42 33.4446 62.8591 32.8326C63.5841 32.4519 64.3819 32.2301 65.1993 32.1817C66.0167 32.1333 66.8351 32.2596 67.5999 32.5521C68.3648 32.8445 69.0586 33.2966 69.6352 33.878C70.2118 34.4594 70.6579 35.157 70.944 35.9243ZM60.97 50.6696C60.9205 51.5126 60.9917 52.3583 61.1816 53.1811C61.2972 53.9584 61.7112 54.6119 62.4998 54.5747C63.0566 54.5518 63.5873 54.3323 63.9977 53.9553C65.294 52.4351 65.9952 50.4964 65.9714 48.4986C65.9921 45.953 65.9343 43.4187 65.8775 40.8855C65.8981 40.485 65.8403 40.0968 65.0052 39.8222C62.9305 43.123 61.5569 46.8153 60.97 50.6696Z" fill="#006100"/>
<path d="M93.6332 13.5287C93.7296 13.8607 93.7824 14.204 93.7901 14.5496C93.7116 18.7149 91.9856 19.8897 96.9375 19.7328C98.134 19.6909 99.3142 20.0201 100.316 20.6753C100.852 20.9593 101.307 21.3755 101.637 21.8844C101.967 22.3933 102.162 22.978 102.203 23.5832C102.174 24.1836 101.963 24.7608 101.598 25.2382C101.233 25.7157 100.731 26.0706 100.159 26.2558C99.3784 26.6252 98.5622 26.9146 97.7231 27.1199C97.0811 27.2717 96.4198 27.325 95.7618 27.2778C91.4437 26.9764 92.3015 28.4608 91.1226 33.0979C89.7074 39.0718 88.45 45.0446 87.1917 51.0175C87.0392 51.8471 86.9605 52.6886 86.9563 53.5321C86.8778 54.2403 87.8214 54.711 88.45 54.4757C90.0212 53.6901 92.3676 52.2892 93.661 51.611C96.9499 49.4246 98.1371 48.5472 99.7082 46.111C100.768 44.3688 102.064 42.7819 103.56 41.3955C103.901 41.1275 104.312 40.9629 104.744 40.9212C105.176 40.8795 105.611 40.9624 105.997 41.1601C106.361 41.4 106.635 41.7535 106.777 42.1656C106.919 42.5777 106.921 43.0252 106.783 43.4384C104.503 51.5346 97.2524 55.733 89.7074 59.4276C85.699 61.3889 80.7481 60.37 77.9186 55.3407C76.6962 53.0723 76.0737 50.5292 76.11 47.9526L78.7041 32.3123C78.9395 30.5832 80.3558 28.6188 78.9395 26.9681C77.7606 25.6313 75.7177 26.3395 74.0671 26.0246C72.2193 25.8052 70.4166 25.3013 68.7229 24.5309C68.3222 24.3764 67.9751 24.1088 67.7238 23.7605C67.4725 23.4123 67.3279 22.9985 67.3076 22.5695C67.3544 22.144 67.53 21.7428 67.811 21.4198C68.0919 21.0968 68.4648 20.8673 68.8798 20.762C70.5318 20.3271 72.2129 20.0118 73.9102 19.8185C75.4199 19.6096 76.9472 19.557 78.4677 19.6616C79.4108 19.7418 80.354 19.5078 81.1502 18.996C81.9464 18.4842 82.5509 17.7233 82.8695 16.832C83.5249 15.2587 84.3413 13.7573 85.3057 12.3519C85.7476 11.7322 86.3231 11.2198 86.9898 10.8526C87.6565 10.4854 88.3972 10.2728 89.1571 10.2305C90.1842 10.0992 91.2224 10.3686 92.0559 10.9829C92.8895 11.5971 93.4544 12.5088 93.6332 13.5287Z" fill="#006100"/>
<path d="M113.589 8.68096C114.356 10.9031 114.702 13.2485 114.61 15.5973C114.453 17.5587 114.723 25.5321 115.273 27.3407C115.331 27.5554 115.446 27.7509 115.604 27.9073C115.762 28.0637 115.959 28.1755 116.174 28.2313C116.39 28.287 116.616 28.2848 116.83 28.2249C117.045 28.1649 117.239 28.0493 117.394 27.8899C118.81 26.6336 120.067 25.2183 121.561 24.0394C122.015 23.5618 122.598 23.2261 123.239 23.0725C123.881 22.919 124.552 22.9544 125.174 23.1744C127.135 23.8815 127.846 25.847 126.353 27.3407C125.03 28.6732 123.611 29.9076 122.109 31.0342C116.371 35.8292 117.864 35.5144 120.537 40.3084C121.273 41.7528 122.257 43.0565 123.445 44.1598C125.252 45.8889 126.748 45.8889 128.947 44.5532C129.576 44.1599 130.126 43.6881 130.754 43.3743C131.354 43.0657 132.043 42.9753 132.702 43.1186C133.361 43.2619 133.95 43.63 134.367 44.1598C134.72 44.7145 134.901 45.3612 134.887 46.0185C134.873 46.6758 134.665 47.3142 134.289 47.8534C133.404 49.1132 132.151 50.0688 130.702 50.5894C129.253 51.1099 127.678 51.17 126.194 50.7614C121.663 49.3516 117.805 46.3321 115.347 42.2728C115.112 41.9631 115.191 41.4088 114.404 41.4088C113.541 45.0923 113.381 48.9056 113.933 52.6484C114.181 54.2347 114.312 55.8369 114.325 57.4424C114.362 57.9159 114.291 58.3914 114.118 58.834C113.946 59.2765 113.677 59.6746 113.33 59.999C112.983 60.3234 112.568 60.5658 112.115 60.7083C111.662 60.8507 111.182 60.8896 110.712 60.8221C109.002 60.7869 107.364 60.1285 106.105 58.9708C104.846 57.813 104.054 56.2354 103.876 54.5344C103.418 51.9408 103.233 49.3065 103.324 46.6745C103.876 37.9506 104.549 23.1382 105.335 14.4184C105.543 12.5324 105.911 10.6675 106.436 8.84405C106.763 7.85968 107.24 6.93173 107.85 6.09299C108.072 5.80408 108.351 5.56486 108.671 5.39082C108.991 5.21678 109.344 5.11178 109.707 5.0826C110.07 5.05341 110.435 5.10068 110.778 5.22138C111.122 5.34208 111.436 5.53351 111.701 5.7833C112.583 6.5594 113.235 7.56127 113.589 8.68096Z" fill="#006100"/>
<path d="M168.598 33.4499C167.459 34.637 166.475 35.9638 165.67 37.3984C165.062 38.3754 164.375 39.3013 163.617 40.167C163.617 40.167 162.1 41.8249 162.39 42.3927C162.68 42.9604 164.066 44.4294 164.066 44.7773C164.066 44.9765 166.036 43.5065 167.804 40.4303C168.256 39.1829 169.113 38.1228 170.238 37.4191L168.598 33.4499Z" fill="#006100"/>
<path d="M173.066 35.9274C172.909 36.4776 172.516 36.8709 172.438 37.4201C172.28 37.9713 172.673 38.1282 173.145 38.2067C173.869 38.1175 174.551 37.817 175.106 37.3427C176.001 36.6671 176.947 36.0624 177.936 35.5341C178.449 35.2731 179.033 35.1857 179.6 35.2849C180.167 35.3841 180.686 35.6646 181.08 36.0843C181.48 36.4936 181.735 37.0226 181.806 37.5904C181.877 38.1583 181.759 38.7337 181.472 39.2287C181.096 40.142 180.622 41.0118 180.058 41.8228C178.043 45.5718 176.36 49.4898 175.028 53.5321C174.557 54.711 173.614 56.3616 175.264 57.3836C176.6 58.1702 177.936 57.0688 179.036 56.2832C179.949 55.5803 180.791 54.7907 181.552 53.9254C183.358 51.8041 185.165 49.6032 186.974 47.4024C187.67 46.5083 188.432 45.6677 189.254 44.8877C189.52 44.6484 189.862 44.5095 190.22 44.495C190.578 44.4805 190.93 44.5913 191.215 44.8082C191.488 45.031 191.67 45.3457 191.727 45.6932C191.784 46.0406 191.712 46.397 191.525 46.6952C191.424 46.9468 191.292 47.1844 191.132 47.4024C188.662 51.0187 185.787 54.3411 182.563 57.3052C180.682 59.0614 178.284 60.164 175.726 60.4495C171.009 59.8208 168.101 58.5625 167.158 54.2403C166.8 52.7107 166.966 51.1056 167.629 49.6817C168.572 47.4808 169.591 45.28 170.616 43.075C171.244 41.5823 171.323 41.4233 169.829 40.325C167.55 38.7528 167.236 36.7883 167.943 34.3511C168.493 32.5435 169.904 31.6795 171.401 32.1513C173.066 32.7077 173.692 34.0414 173.066 35.9274Z" fill="#006100"/>
<path d="M203.613 36.1957C204.029 38.0351 204.344 39.896 204.556 41.7701C204.398 45.857 204.32 48.8434 204.163 51.8308C204.163 52.6949 204.163 53.5589 204.241 54.3455C204.32 55.3675 204.477 56.4679 205.577 56.8602C206.919 57.3319 207.7 56.311 208.328 55.4459C209.265 54.1849 210.131 52.8729 210.922 51.516L212.258 49.3936C212.483 49.0269 212.776 48.7069 213.122 48.4511C213.326 48.2532 213.583 48.1186 213.862 48.0636C214.141 48.0086 214.43 48.0357 214.694 48.1414C214.967 48.2476 215.19 48.4511 215.32 48.7124C215.451 48.9737 215.48 49.2742 215.401 49.5557C214.623 53.2 212.628 56.4711 209.743 58.8308C206.206 61.5808 202.041 61.5034 198.976 58.3591C197.247 56.63 195.91 56.2367 193.788 57.2586C192.578 57.704 191.258 57.7589 190.015 57.4155C186.402 56.7084 184.593 54.7429 184.356 51.0494C184.175 49.0624 184.389 47.0592 184.985 45.155C186.4 40.9112 189.073 37.4531 192.059 34.2302C193.172 33.132 194.555 32.3459 196.068 31.9509C196.841 31.6806 197.663 31.578 198.478 31.65C199.294 31.722 200.085 31.967 200.799 32.3686C201.513 32.7701 202.133 33.3192 202.618 33.9791C203.103 34.639 203.442 35.3946 203.613 36.1957ZM191.587 49.3203C191.415 50.1471 191.362 50.9942 191.431 51.836C191.431 52.6216 191.74 53.3287 192.531 53.4071C193.085 53.4659 193.642 53.3269 194.103 53.0149C195.608 51.7007 196.585 49.8851 196.853 47.905C197.247 45.3904 197.56 42.8757 197.875 40.36C197.954 39.9677 197.954 39.5754 197.168 39.1811C194.632 42.1424 192.733 45.5936 191.587 49.3203Z" fill="#006100"/>
<path d="M38.3732 35.3137C37.6504 36.7915 37.118 38.3551 36.7888 39.9668C36.5073 41.0828 36.1356 42.1739 35.6774 43.2296C35.6774 43.2296 34.7385 45.2709 35.1879 45.7232C35.6373 46.1755 37.4045 47.1521 37.5106 47.4835C37.5713 47.6732 39 45.6724 39.7453 42.2038C39.7958 40.8779 40.2887 39.6071 41.1455 38.5939L38.3732 35.3137Z" fill="#006100"/>
<path d="M47.5004 34.5C47.7005 35.133 47.4077 34.8641 47.5004 35.411C47.518 35.9842 43.9671 35.4801 44.4403 35.411C45.1031 35.1053 46.0449 34.9902 46.0449 34.9902C46.9172 34.8873 40.2197 34.3046 41.0004 33.5C41.4094 33.0951 48.7564 33.8417 49.3266 33.7633C49.8969 33.685 50.4771 33.7937 50.9803 34.0733C51.486 34.3412 51.89 34.7673 52.1306 35.2865C52.3712 35.8057 52.4351 36.3894 52.3125 36.9484C52.2327 37.933 52.0463 38.9059 51.7565 39.8502C50.9804 44.035 50.5718 48.2797 50.5354 52.5357C50.4465 53.802 50.0511 55.6617 51.9348 56.1318C53.4468 56.4737 54.3832 55.0174 55.1917 53.9338C55.8466 52.9861 56.4083 51.9772 56.8688 50.9213C57.9426 48.3502 56.9921 50.7033 58.0446 48.0556C58.4348 46.992 58.9041 45.9591 59.4488 44.9657C59.6298 44.6565 59.9129 44.4201 60.2494 44.2971C60.5859 44.1741 60.9548 44.1724 61.2925 44.292C61.6201 44.4211 61.8893 44.6654 62.0495 44.9789C62.2098 45.2925 62.25 45.6537 62.1628 45.9948C62.1438 46.265 62.0904 46.5316 62.0038 46.7882C60.7541 50.9853 61.0292 50.026 58.8627 53.8317C57.6058 56.078 55.6583 57.8593 53.3089 58.911C48.6252 59.7502 45.4721 59.4383 43.2558 55.6095C42.4493 54.2617 42.1181 52.6824 42.3153 51.1241C42.5419 48.7407 45.1963 44.4126 45.5004 42C45.644 40.3867 44.9028 39.5907 43.1454 39C40.4953 38.1976 38.0099 38.9645 37.9403 36.4277C37.9133 34.5385 38.9938 33.2853 40.5632 33.2783C42.3187 33.3006 47.3003 33.867 47.5004 34.5Z" fill="#006100"/>
<path d="M31.5989 55.85C31.5989 55.85 34.2033 -0.34199 38.2032 5.15799C42.2031 10.658 44.6564 -0.0985752 44.3817 5.15795C43.5902 20.3076 36.8424 52.9111 38.2028 54.5735C37.3424 61.4111 31.5989 62.9111 31.5989 55.85Z" fill="#006100"/>
<path d="M150.02 28.9605C151.273 29.2741 153.112 29.3368 154.236 29.8259C163.991 34.0736 165.399 40.8251 163.51 48.1774C161.34 56.6221 153.854 61.9987 142.323 59.0662L142.25 59.0477C130.733 56.0578 126.767 47.7385 128.937 39.2938C130.826 31.9414 135.315 26.7051 145.909 27.6862C147.13 27.7998 148.771 28.6322 150.02 28.9605Z" fill="#8ECE00"/>
<path d="M146.022 32.8673C146.911 33.0745 147.659 35.3297 148.327 36.2836C148.742 36.8428 149.199 38.6408 149.659 39.1953C150.206 39.7397 150.121 43.189 150.301 45.1619C150.298 45.8179 150.267 46.4659 150.208 47.1026C149.804 50.525 148.186 52.2064 146.439 52.4524C142.979 53.1226 139.012 50.2874 138.729 45.069C138.571 42.7322 138.444 40.5735 138.845 38.3582C139.039 37.0946 139.403 35.932 139.918 34.9248C140.459 33.9618 141.255 33.8943 142.123 33.6137C143.515 33.1648 144.762 32.579 146.022 32.8673ZM142.408 40.7683C142.207 42.7803 142.306 44.9025 142.7 47.0125C142.939 48.0743 144.453 48.441 145.223 47.9966C147.103 47.0121 148.133 43.8269 147.548 40.3867C147.434 39.9089 147.288 39.4394 147.113 38.9852C147.027 38.7469 146.909 38.5276 146.766 38.3417C146.623 38.1559 145.459 37.0076 145.284 36.9066C145.109 36.8056 144.927 36.7543 144.751 36.7558C144.574 36.7574 144.407 36.8119 144.26 36.9157C143.382 37.4917 142.545 39.3044 142.41 40.7677L142.408 40.7683Z" fill="white"/>
<g opacity="0.5">
<path opacity="0.5" d="M150.239 58.1457L150.167 58.1272C138.65 55.1373 134.684 46.818 136.854 38.3733C138.129 33.4094 140.59 29.4106 145.314 27.6378C135.146 26.9051 130.79 32.0807 128.937 39.2938C126.767 47.7385 130.733 56.0578 142.25 59.0477L142.323 59.0662C147.027 60.2625 151.058 60.0756 154.329 58.8619C152.949 58.7315 151.582 58.492 150.239 58.1457Z" fill="#79A21F"/>
</g>
<g opacity="0.5">
<path opacity="0.5" d="M152.624 56.0127L152.551 56.0301C140.973 58.7691 133.578 53.2677 131.55 44.7878C130.052 38.525 130.92 32.734 137.216 28.6285C132.61 30.4352 130.196 34.394 128.937 39.2937C126.767 47.7384 130.733 56.0577 142.25 59.0476L142.323 59.0662C152.63 61.6869 159.704 57.6697 162.64 50.7567C160.327 53.1038 157.013 54.9513 152.624 56.0127Z" fill="#496A00"/>
</g>
<g opacity="0.6">
<path opacity="0.6" d="M131.139 46.1168C131.03 46.0888 130.933 46.0274 130.86 45.9413C130.788 45.8552 130.745 45.7486 130.736 45.6365C130.695 45.1027 130.679 44.5598 130.691 44.0229C130.726 42.6288 130.921 41.2433 131.272 39.8938C131.46 39.1616 131.672 38.4576 131.903 37.8006C131.95 37.6658 132.049 37.5553 132.178 37.4934C132.307 37.4315 132.455 37.4233 132.59 37.4706C132.724 37.5179 132.835 37.6168 132.897 37.7456C132.959 37.8744 132.967 38.0225 132.92 38.1573C132.699 38.7851 132.496 39.4596 132.316 40.1623C131.985 41.4317 131.801 42.7349 131.768 44.0463C131.757 44.5482 131.771 45.0551 131.81 45.5536C131.817 45.639 131.803 45.7249 131.77 45.8039C131.736 45.8829 131.685 45.9529 131.619 46.008C131.554 46.0631 131.476 46.1018 131.392 46.1207C131.309 46.1397 131.222 46.1385 131.139 46.1171L131.139 46.1168Z" fill="#E9E9E9"/>
</g>
<g opacity="0.6">
<path opacity="0.6" d="M132.024 50.1118C131.94 50.0904 131.863 50.0492 131.798 49.9916C131.734 49.934 131.684 49.8618 131.653 49.781C131.436 49.2067 131.255 48.6191 131.112 48.0219C131.079 47.8834 131.103 47.7377 131.178 47.6167C131.253 47.4957 131.372 47.4092 131.511 47.3761C131.649 47.3429 131.795 47.3658 131.916 47.4397C132.038 47.5137 132.125 47.6327 132.159 47.7708C132.292 48.3235 132.459 48.8672 132.661 49.3987C132.696 49.4909 132.705 49.5911 132.687 49.6881C132.669 49.7852 132.625 49.8754 132.559 49.949C132.493 50.0226 132.408 50.0767 132.314 50.1054C132.22 50.1341 132.119 50.1363 132.023 50.1118L132.024 50.1118Z" fill="#E9E9E9"/>
</g>
<path d="M149.241 27.0355C149.17 27.0044 148.868 26.8796 148.422 26.6951C147.977 26.5105 147.449 26.3703 147.184 26.2442C147.064 26.201 146.956 26.1296 146.869 26.036C146.782 25.9423 146.718 25.8292 146.684 25.7062C146.547 25.3702 146.103 23.9998 145.434 23.5365C144.736 23.0739 143.999 22.6717 143.232 22.3341C142.568 22.0361 140.666 21.0894 138.705 21.1689C137.423 21.2748 136.213 21.8018 135.263 22.6675C135.211 22.7211 135.172 22.7863 135.151 22.8577C135.129 22.929 135.125 23.0045 135.138 23.0779C135.288 23.5751 135.518 24.0445 135.82 24.4676C136.402 25.2731 137.211 25.8871 138.143 26.2314C139.309 26.7042 140.544 26.9849 141.8 27.0624C142.144 27.0017 144.22 26.8481 145.016 26.8129C145.813 26.7778 147.06 26.4757 147.325 26.6027C147.59 26.7296 148.763 27.05 149.012 27.2022C149.211 27.3023 149.416 27.3911 149.624 27.4684C149.767 27.5499 149.902 27.6446 150.028 27.7512C150.117 27.8417 150.08 28.1075 150.025 28.164C149.97 28.2205 149.925 28.4474 149.842 28.4665C149.759 28.4856 149.576 28.5741 149.546 28.6819C149.516 28.7898 149.211 29.0833 149.475 29.245C149.739 29.4066 150.096 29.9846 150.175 29.9203C150.683 29.4965 150.446 28.8901 150.484 28.7691C150.54 28.6305 150.605 28.4955 150.677 28.3648C150.677 28.3648 150.971 28.6702 150.965 28.5239C150.959 28.3776 150.667 28.2343 150.6 28.0491C150.533 27.864 150.549 27.6031 150.366 27.401C150.275 27.2905 150.175 27.1875 150.068 27.093C149.984 27.024 149.94 27.2133 149.94 27.2133C149.94 27.2133 149.677 26.9079 149.507 26.7139C149.305 26.4697 149.128 26.205 148.981 25.9241C148.925 25.7798 148.964 25.481 148.694 25.2441C148.425 25.0072 148.043 24.6295 147.91 24.4935C147.776 24.3576 147.601 24.143 147.592 23.3626C147.583 22.5822 146.508 19.853 146.191 19.3886C145.874 18.9242 145.134 17.0125 144.172 16.3157C143.862 16.0966 143.508 15.9485 143.134 15.8821C142.761 15.8157 142.377 15.8325 142.011 15.9314C141.725 16.1447 141.485 16.4126 141.303 16.7195C141.122 17.0264 141.003 17.3663 140.954 17.7194C140.75 18.8196 142.154 21.6057 142.257 21.7758C143.46 22.6439 144.733 23.4104 146.063 24.0672C146.552 24.1125 147.036 24.1977 147.511 24.3218C147.647 24.4231 148.571 25.4174 148.571 25.4174L148.472 25.5195C148.472 25.5195 147.78 24.9707 147.715 24.9305C147.65 24.8904 147.724 25.1517 147.841 25.2262C147.958 25.3006 148.176 25.5034 148.383 25.666C148.681 25.9439 148.953 26.2489 149.195 26.577C149.286 26.7216 149.437 27.1228 149.241 27.0355Z" fill="#8ECE00"/>
</svg>
