<svg width="45" height="45" viewBox="0 0 45 45" fill="none" xmlns="http://www.w3.org/2000/svg">
<path d="M31.2059 13.0773C30.9316 12.3279 28.0086 12.0039 26.7987 13.3739C25.5889 14.7439 25.3338 15.7847 24.1551 15.672C22.9764 15.5593 21.7421 15.3295 20.6175 16.4497C19.4929 17.5698 18.8227 18.4631 17.5588 18.3096C15.7381 18.0873 15.7166 19.5699 14.9641 20.1926C14.4452 20.6233 13.1849 20.7612 12.7357 21.8236C12.2864 22.8859 12.8788 23.2321 12.0907 24.1847C11.3027 25.1373 10.9128 25.2655 10.5458 26.3598C10.1788 27.454 10.6488 30.2332 10.0854 31.3541C9.52202 32.475 8.98682 35.1823 10.6244 36.1616C12.262 37.1409 12.1419 39.7267 12.7868 40.313C13.4318 40.8994 14.7565 41.9751 15.721 41.8906C16.6855 41.8061 19.0941 43.8329 20.6931 44.3703C22.2922 44.9078 24.422 45.2525 25.5755 44.6076C26.729 43.9626 27.4726 44.2554 29.0093 43.8611C30.5461 43.4667 32.3142 42.4288 32.5003 41.5748C32.7138 41.0157 33.0402 40.5067 33.4595 40.0794C33.8785 39.6521 34.3805 39.3157 34.9355 39.0913C36.1435 38.5613 36.3295 37.2113 35.8825 36.0319C35.4365 34.8524 36.0975 33.6277 36.6325 32.8709C37.1665 32.114 37.2155 29.5089 36.8455 28.6356C36.5435 27.4961 36.5245 26.3 36.7905 25.1514C37.0865 23.8615 36.9105 23.7117 36.0435 22.3907C35.1755 21.0696 35.4815 20.4054 35.7365 19.3675C35.9915 18.3297 36.0495 17.6002 35.1805 17.1206C34.3125 16.6409 34.3405 16.2769 34.3145 15.5193C34.2885 14.7617 34.5975 14.3969 33.4755 13.8335C32.3542 13.2701 31.4009 13.6111 31.2059 13.0773Z" fill="#8ECE00"/>
<path d="M29.5338 11.4012C29.4189 11.4116 28.9311 11.4679 28.2128 11.5495C27.4944 11.631 26.7004 11.8304 26.2608 11.8578C26.0717 11.8885 25.8779 11.8734 25.6958 11.8138C25.5137 11.7543 25.3485 11.6519 25.2141 11.5153C24.79 11.1743 23.2125 9.69909 21.9982 9.57751C20.7457 9.47832 19.4871 9.48601 18.2359 9.6005C17.1477 9.69242 13.9651 9.83253 11.4506 11.3619C9.84671 12.432 8.64192 14.0027 8.02412 15.8291C7.99512 15.9371 7.99222 16.0504 8.01572 16.1598C8.03912 16.2691 8.08831 16.3712 8.15911 16.4578C8.71721 17.001 9.36021 17.4494 10.0628 17.7855C11.4122 18.4189 12.9195 18.6365 14.3929 18.4104C16.266 18.1834 18.0898 17.6541 19.7935 16.8433C20.1997 16.5141 22.8114 14.8039 23.8308 14.1789C24.8501 13.554 26.2668 12.2515 26.7064 12.2255C27.146 12.1996 28.9178 11.7674 29.3551 11.7859C29.6888 11.7726 30.0214 11.7407 30.3515 11.6903C30.5983 11.6934 30.8442 11.7194 31.0861 11.7681C31.2685 11.8223 31.4138 12.1974 31.3827 12.3115C31.3515 12.4257 31.4568 12.7563 31.3619 12.8416C31.267 12.9268 31.0913 13.1759 31.1306 13.339C31.1699 13.5021 30.9824 14.1093 31.4464 14.1293C31.9105 14.1493 32.7986 14.6482 32.855 14.5066C33.2138 13.5814 32.4628 12.958 32.4242 12.7719C32.397 12.5493 32.3836 12.3252 32.3842 12.101C32.3842 12.101 32.9906 12.2885 32.8764 12.101C32.7623 11.9134 32.276 11.9372 32.0536 11.7429C31.8312 11.5487 31.6622 11.1951 31.2752 11.0631C31.0757 10.9841 30.8702 10.9214 30.6606 10.8756C30.5005 10.8459 30.5806 11.1262 30.5806 11.1262C30.5806 11.1262 30.0127 10.9171 29.6495 10.7859C29.2065 10.6127 28.7828 10.3935 28.3855 10.132C28.2068 9.98376 28.0408 9.56343 27.5152 9.44852C26.9896 9.33362 26.2141 9.11566 25.9406 9.03412C25.667 8.95257 25.2815 8.79837 24.7026 7.78127C24.1236 6.76416 20.7298 3.96564 19.9766 3.58682C19.2234 3.208 16.863 1.2383 15.0949 1.02331C14.5295 0.960927 13.9572 1.02413 13.419 1.20841C12.8808 1.39268 12.3899 1.69348 11.9813 2.08934C11.7616 2.57677 11.6408 3.10293 11.6257 3.63737C11.6107 4.17182 11.7019 4.70394 11.8939 5.20293C12.4254 6.79456 16.2922 9.4285 16.5509 9.57677C18.7594 9.84161 20.9862 9.92196 23.208 9.81696C23.8822 9.52126 24.5794 9.28102 25.2927 9.09862C25.5447 9.13272 27.4788 9.76581 27.4788 9.76581L27.424 9.97116C27.424 9.97116 26.1178 9.75395 26.0029 9.74876C25.8879 9.74357 26.1748 10.0327 26.3824 10.0453C26.59 10.0579 27.0237 10.1654 27.4129 10.2284C28.0061 10.3762 28.5843 10.5787 29.1402 10.8333C29.3655 10.9564 29.8548 11.373 29.5338 11.4012Z" fill="#8ECE00"/>
<path d="M29.7364 20.6767C31.0315 21.1326 31.3103 23.7162 31.9708 24.9023C32.3963 25.6043 32.4015 27.6267 32.8967 28.3354C33.5315 29.0567 32.0538 32.6803 31.5623 34.8139C31.3022 35.5066 31.0014 36.1834 30.6616 36.8407C28.7008 40.3509 25.5397 41.6971 22.7405 41.4918C17.1234 41.2783 12.0891 37.2239 13.6874 31.6321C14.3546 29.1197 14.9995 26.8038 16.4844 24.5687C17.2785 23.2848 18.2949 22.1527 19.486 21.2253C20.6981 20.3513 21.9569 20.4921 23.4107 20.4269C25.7392 20.3231 27.8987 20.0362 29.7364 20.6767ZM22.6071 28.3324C21.5112 30.4058 20.8367 32.6757 20.6225 35.0111C20.578 36.1972 21.2319 36.7221 22.5967 36.4574C25.8911 35.9177 28.7275 32.8249 29.1641 29.0322C29.1746 28.4968 29.1322 27.9617 29.0373 27.4347C28.9977 27.1599 28.9004 26.8967 28.7519 26.6621C28.6034 26.4276 28.407 26.2271 28.1756 26.0737C27.9443 25.9204 27.6831 25.8177 27.4092 25.7723C27.1354 25.7269 26.855 25.7399 26.5865 25.8104C25.0038 26.1855 23.3914 26.8216 22.6108 28.3324H22.6071Z" fill="white"/>
</svg>
